<svg width="32" height="32" viewBox="0 0 100 100" fill="none" xmlns="http://www.w3.org/2000/svg">
  <g>
    <path d="M50 85 Q45 60 50 45" stroke="#7c5cfc" stroke-width="3" stroke-linecap="round" opacity="0.6" />
    <path d="M50 65 Q40 55 35 45" stroke="#7c5cfc" stroke-width="2" stroke-linecap="round" opacity="0.5" />
    <path d="M50 70 Q60 60 65 50" stroke="#7c5cfc" stroke-width="2" stroke-linecap="round" opacity="0.5" />
    <path d="M50 80 Q35 70 30 55 Q45 60 50 80" fill="#4B0082" opacity="0.7" />
    <path d="M50 80 Q65 70 70 55 Q55 60 50 80" fill="#4B0082" opacity="0.7" />
    <circle cx="40" cy="50" r="6" fill="#a78bfa" />
    <circle cx="50" cy="52" r="7" fill="#c4b5fd" />
    <circle cx="60" cy="50" r="6" fill="#8b5cf6" />
    <circle cx="43" cy="40" r="6.5" fill="#c4b5fd" />
    <circle cx="57" cy="40" r="6.5" fill="#a78bfa" />
    <circle cx="50" cy="42" r="8" fill="#ddd6fe" />
    <circle cx="46" cy="30" r="5.5" fill="#8b5cf6" />
    <circle cx="54" cy="30" r="5.5" fill="#c4b5fd" />
    <circle cx="50" cy="22" r="5" fill="#ddd6fe" />
    <circle cx="40" cy="50" r="1.5" fill="#4c1d95" opacity="0.8" />
    <circle cx="50" cy="52" r="2" fill="#4c1d95" opacity="0.8" />
    <circle cx="60" cy="50" r="1.5" fill="#4c1d95" opacity="0.8" />
    <circle cx="50" cy="42" r="2" fill="#4c1d95" opacity="0.8" />
    <circle cx="50" cy="22" r="1.5" fill="#4c1d95" opacity="0.8" />
  </g>
</svg>
